<svg version="1.1" viewBox="0 0 200 120" xml:space="preserve" xmlns="http://www.w3.org/2000/svg"><defs><clipPath id="clipPath3"><path transform="translate(-224.96 -222.41)" d="m0 283.46h425.2v-283.46h-425.2z"/></clipPath></defs><g><path transform="matrix(.60182 0 0 -.60182 107.44 17.467)" d="m-11.989 22.212c-2.638-4.601-6.9516-6.6757-6.9516-6.6757 0.028-1.954 3.2319-5.1941 2.4989-6.5751-2.774 2.529-4.9244 3.3853-9.3304 4.5403-0.189-2.491-1.8092-8.2856 3.7938-11.317-0.479-1.055-1.9959-2.1841-1.9959-2.1841 1.532-1.756 11.263-6.128 11.164-0.55496-0.075 4.207-8.9311 4.6657-9.7101 9.5187 1.95-3.91 8.0883-4.444 9.7913-6.455 0.254 4.01 0.17594 8.9243 0.73994 12.887 0.563-3.963 0.48819-8.8773 0.74319-12.887 1.703 2.011 7.839 2.545 9.788 6.455-0.778-4.853-9.6319-5.3117-9.7069-9.5187-0.098999-5.573 9.6321-1.201 11.164 0.55496 0 0-1.5201 1.1291-1.9991 2.1841 5.603 3.031 3.9861 8.8256 3.7971 11.317-4.406-1.155-6.5587-2.0113-9.3337-4.5403-0.732 1.381 2.4732 4.6211 2.5022 6.5751 0 0-4.3178 2.0747-6.9548 6.6757zm-0.57443-27.553c-2.4335 0.0125-4.6919-0.34266-6.0169-0.76266 2.222-0.054 1.7381-2.5227 0.66205-2.6937-1.965-0.381-2.3275-2.2172-3.8815-2.5152-1.553-0.298-5.0359-1.6028-5.6469-2.0868-0.119-0.093-0.13713-0.33081-0.081134-0.65881 1.06-0.44 1.5927-0.66142 2.6547-1.1034-0.9-0.064-1.3478-0.096023-2.2458-0.15902 0.616-1.452 2.2978-3.7466 3.4498-4.4526 0.162 0.722 0.24267 1.0792 0.40567 1.8012 0 0 1.2636 1.0539 3.6056 1.2689 2.234 0.206 4.3642-2.6221-0.1428-3.9301-0.239 0.204-0.36015 0.30452-0.59715 0.50952-1.118-0.369-1.673-0.55119-2.791-0.91519 0.186-3.069 1.5026-4.6766 1.5026-4.6766s3.2122 3.219 7.2112 4.55c-4.892-3.776-8.1071-7.539-8.3471-15.25-5.71 0.1-8.5671 0.17646-14.273 0.37646-0.684-1.777-1.0241-2.6619-1.7071-4.4299 2.959-0.942 4.4374-1.4137 7.3994-2.3367 0.227 0.815 0.34218 1.2243 0.57118 2.0413 0 0 3.1298-0.79853 8.5418-2.4275 4.006-1.207 6.6869 1.2082 8.6749 4.3942-0.214-2.364-0.40893-3.4513-2.4989-5.9033 4.411-1.354 7.2162-4.7153 8.6392-8.0193 2.726-6.325 4.81-8.7391 10.687-10.239v-3.3168c-2.229 0.144-3.339 0.22418-5.569 0.39918-0.854-2.112-1.2837-3.168-2.1387-5.277 4.665 0.051 7.0008 0.11082 11.664 0.30182 0 0 0.31809 7.8248 2.9111 12.404 0 0-7.4017 2.9421-7.4027 9.5771 0 2.836 1.1395 3.1775 3.6965 6.4485 0.967 1.236 1.3645 3.3259 1.0775 4.8259-0.286 1.501-1.1602 2.7935-2.4632 3.6445-0.708 0.462-1.0607 0.6956-1.7687 1.1586-1.737 1.142-2.1769 3.4624-0.97685 5.1634 0.581 0.823 1.4562 1.3818 2.4632 1.5708 1.007 0.188 2.0227-0.009448 2.8657-0.56145 1.073-0.704 1.4762-1.8003 1.6292-2.5963 0.401-2.093 1.1241-4.2193 3.4271-5.0173 3.296-1.142 9.3635 1.4928 8.9215 5.2348-0.757-0.452-3.5298 1.6775-6.0688 0.50952-1.575-0.725-2.5386-2.2832-3.6316-0.003245-0.796 1.658-1.2891 3.1287-2.7261 4.0697-1.441 0.943-3.1895 1.2911-4.9135 0.96712-1.724-0.323-3.222-1.2782-4.219-2.6872-0.995-1.409-1.3665-3.1064-1.0515-4.7804 0.316-1.675 1.2854-3.1252 2.7294-4.0762 0.708-0.465 1.0607-0.6946 1.7687-1.1586 0.7-0.458 1.1734-1.1567 1.3274-1.9667 0.154-0.811-0.028768-1.6347-0.51277-2.3237-0.797-1.135-1.3323-1.644-3.2713-1.217-3.745 0.824-7.0623 3.8411-7.9803 11.284 2.53-4.888 5.5626-7.0262 5.5626-7.0262s-2.6572 5.1662-0.37322 15.068c0.751-1.161 1.5091-1.7687 1.5091-1.7687s-0.7805 3.7004-0.3505 8.7884c0 0-0.015944 0.013454-0.038944 0.032454 1.01-0.736 1.8856-1.2689 1.8856-1.2689s-1.3089 6.9983-6.6919 9.7783c-2.024 1.046-4.6317 1.4252-7.0652 1.4377zm-4.4364-6.1629c-1.112-0.909-1.666-1.3648-2.778-2.2718-0.019 0.882-0.026435 1.3248-0.045435 2.2068 1.131 0.027 1.6945 0.037908 2.8235 0.064908zm-19.245-7.2566c0.694-2.406 1.041-3.6149 1.733-6.0299 0.925-0.019 1.3857-0.028435 2.3107-0.045435 0 0 2.7917-3.2921 4.0437-9.3661 1.579-0.038 2.3706-0.053134 3.9496-0.081134-0.079 3.976 1.6973 7.2047 1.6973 7.2047-0.726 8e-3 -1.0894 0.012718-1.8174 0.022718-3.17 3.577-4.0235 4.6365-7.0035 8.2335-1.965 0.022-2.9495 0.034662-4.9135 0.061662zm61.61-18.58c-1.264 0-2.5426-0.69715-2.8916-2.3432l1.6129-0.006491c0.282 0.902 0.83228 1.0028 1.3793 1.0028 0.555 0 1.0158-0.34807 1.0158-1.1781 0-0.517-1.2587-1.7352-2.1387-2.4632l-2.0186-1.8953 0.016227-0.29533h5.7962v1.3436h-2.5216l0.89896 0.88923c0.94946 0.83614 1.5218 1.6184 1.548 2.6644 0.001383-0.03703 0.003245-0.075657 0.003245-0.11359v0.18823c0-0.01314-0.003075-0.025887-0.003245-0.038944-0.073825 1.497-1.2777 2.2458-2.6969 2.2458zm-108.06-0.009736-3.5894-7.1593h1.6779l0.40892 1.0028h2.9922l0.40242-1.0028h1.6779l-3.5699 7.1593zm7.3021 0v-7.1593h1.428v3.875l4.1703-3.875v7.1593h-1.4507v-3.8587l-4.1476 3.8587zm10.619 0v-7.1593h1.428v3.875l4.1735-3.875v7.1593h-1.4507v-3.8587l-4.1508 3.8587zm13.111-0.003245c-0.99 0-1.8396-0.34552-2.5476-1.0385-0.696-0.696-1.045-1.5391-1.045-2.5281s0.34901-1.8396 1.045-2.5476c0.708-0.696 1.5576-1.0418 2.5476-1.0418 0.993 0 1.8339 0.34576 2.5249 1.0418 0.693 0.708 1.0418 1.5586 1.0418 2.5476s-0.34876 1.8321-1.0418 2.5281c-0.691 0.693-1.5319 1.0385-2.5249 1.0385zm87.79 0c-0.99 0-1.8396-0.34552-2.5476-1.0385-0.696-0.696-1.045-1.5391-1.045-2.5281s0.34901-1.8396 1.045-2.5476c0.708-0.696 1.5576-1.0418 2.5476-1.0418 0.993 0 1.8371 0.34576 2.5281 1.0418 0.693 0.708 1.0385 1.5586 1.0385 2.5476s-0.34552 1.8321-1.0385 2.5281c-0.691 0.693-1.5351 1.0385-2.5281 1.0385zm11.145 0c-0.99 0-1.8396-0.34552-2.5476-1.0385-0.696-0.696-1.0418-1.5391-1.0418-2.5281s0.34576-1.8396 1.0418-2.5476c0.708-0.696 1.5576-1.0418 2.5476-1.0418 0.993 0 1.8371 0.34576 2.5281 1.0418 0.693 0.708 1.0418 1.5586 1.0418 2.5476s-0.34876 1.8321-1.0418 2.5281c-0.691 0.693-1.5351 1.0385-2.5281 1.0385zm8.1102-0.012981-1.4215-1.5675 2.0608-0.009736v-5.5496h1.5351v7.1268h-2.1744zm-107.05-1.415c0.593 0 1.0906-0.20985 1.5026-0.63285 0.427-0.411 0.64258-0.91385 0.64258-1.5058 0-0.592-0.21558-1.1033-0.64258-1.5253-0.412-0.428-0.9096-0.64258-1.5026-0.64258s-1.1043 0.21458-1.5253 0.64258c-0.423 0.422-0.63609 0.93332-0.63609 1.5253 0 0.592 0.21309 1.0948 0.63609 1.5058 0.421 0.423 0.93232 0.63285 1.5253 0.63285zm87.79 0c0.593 0 1.0906-0.20985 1.5026-0.63285 0.427-0.411 0.64258-0.91385 0.64258-1.5058 0-0.592-0.21558-1.1033-0.64258-1.5253-0.412-0.428-0.9096-0.64258-1.5026-0.64258-0.593 0-1.1043 0.21458-1.5253 0.64258-0.423 0.422-0.63609 0.93332-0.63609 1.5253 0 0.592 0.21309 1.0948 0.63609 1.5058 0.421 0.423 0.93232 0.63285 1.5253 0.63285zm11.145 0c0.593 0 1.0938-0.20985 1.5058-0.63285 0.427-0.411 0.63934-0.91385 0.63934-1.5058 0-0.592-0.21234-1.1033-0.63934-1.5253-0.412-0.428-0.91285-0.64258-1.5058-0.64258-0.593 0-1.1011 0.21458-1.5221 0.64258-0.423 0.422-0.63609 0.93332-0.63609 1.5253 0 0.592 0.21309 1.0948 0.63609 1.5058 0.421 0.423 0.92908 0.63285 1.5221 0.63285zm-129.97-1.5221 0.86976-1.7395h-1.7395l0.86976 1.7395zm64.456-7.2404c-0.088881-0.001414-0.13631-0.006491-0.13631-0.006491s-6.4575-3.349-6.8055-9.801c-0.256-4.741 1.9277-5.7313 1.9277-5.7313-0.213-1.235-0.32248-1.8501-0.53548-3.0831-2.223 0.288-3.3318 0.43692-5.5528 0.75292-0.983-2.032-1.4737-3.0448-2.4567-5.0628 4.398-0.264 6.5998-0.36728 11.002-0.50628 0 0 2.3996 4.9085 6.4096 8.7755 0 0-2.7896 4.1262 1.2754 6.3642 2.322 1.279 4.8875-0.83081 4.8875-0.83081s0.10429 3.523-3.5277 6.455c-3.1789 2.5637-5.8653 2.6841-6.4875 2.6742zm38.279-42.767-3.3362-6.8672h4.6182l5.6307 6.8672h-6.9126zm-198.57-9.4018v-28.089h6.825v9.9308h15.909c7.241 0 10.862 2.9862 10.862 8.9572 0 2.743-0.96909 4.9602-2.9111 6.6562-1.938 1.696-4.4998 2.5444-7.6818 2.5444h-23.003zm88.842 0v-5.3938h13.384v-22.695h6.8282v22.695h13.384v5.3938h-33.596zm185.75 0 16.684-17.149v-10.94h6.8282v10.94l16.681 17.149h-8.6586l-11.414-11.732-11.407 11.732h-8.7138zm-228.35-0.003245v-28.085h31.542v5.3906h-24.717v6.1694h16.415v5.3938h-16.415v5.7378h23.626v5.3938h-30.451zm89.033 0v-28.085h6.8315v9.9308h12.91l6.8834-9.9308h7.711l-7.1366 10.431c4.266 1.166 6.3966 3.9857 6.3966 8.4607 0 2.741-0.96985 4.958-2.9078 6.653-1.942 1.696-4.4965 2.5411-7.6785 2.5411h-23.01zm59.049 0-14.938-28.085h6.8996l3.2162 6.0526h18.034l3.2097-6.0526h6.8964l-14.899 28.085h-8.4185zm35.576 0v-28.085h6.8282v20.056h0.11359l19.054-20.056h7.9868v28.085h-6.8282v-20.099l-0.14604 0.00974-19.024 20.089h-7.9836zm95.592 0v-28.089h6.8282v28.089h-6.8282zm-127.02-5.0985 6.1629-11.547h-12.303l6.1402 11.547zm-191.65-0.29208h15.406c3.074 0 4.6117-1.2579 4.6117-3.7679 0-1.109-0.40426-1.9862-1.2203-2.6352-0.814-0.645-1.9325-0.96712-3.3525-0.96712h-15.445v7.3702zm135.29-0.00325h15.399c1.421 0 2.5472-0.33083 3.3752-0.98983 0.824-0.657 1.243-1.5268 1.243-2.6158 0-1.165-0.40403-2.0801-1.204-2.7521-0.801-0.673-1.9252-1.0093-3.3752-1.0093h-15.438v7.367zm-47.145-43.231c-2.103 0-3.9063-0.73758-5.4133-2.2166-1.477-1.477-2.2166-3.2681-2.2166-5.3711s0.73958-3.9073 2.2166-5.4133c1.507-1.477 3.3103-2.2166 5.4133-2.2166 2.519 0 4.5436 1.0109 6.0786 3.0279l-2.1744 2.2166c-0.909-1.478-2.2092-2.2166-3.9042-2.2166-1.26 0-2.3431 0.45405-3.2421 1.363-0.9 0.9-1.3468 1.9789-1.3468 3.2389s0.44683 2.3267 1.3468 3.1967c0.899 0.901 1.9821 1.3501 3.2421 1.3501 1.695 0 2.9952-0.72439 3.9042-2.1744l2.1744 2.1744c-1.535 2.027-3.5596 3.0409-6.0786 3.0409zm27.887 0c-1.628 0-2.972-0.37091-4.034-1.1099-1.041-0.767-1.6424-1.7513-1.8044-2.9533-0.028-0.19-0.042189-0.37794-0.042189-0.56794 0-1.014 0.35448-1.9072 1.0645-2.6742 1.033-1.202 2.6381-1.8012 4.8161-1.8012 1.242 0 2.0923-0.26113 2.5573-0.78213 0.198-0.247 0.29857-0.50713 0.29857-0.78213v-0.0714c-0.143-0.966-1.0939-1.4474-2.8559-1.4474-1.099 0-2.0833 0.20611-2.9533 0.62311-0.351 0.161-0.62532 0.33899-0.82432 0.52899l-1.0223-1.1521-1.0677-1.1099c0.378-0.35 0.91446-0.69129 1.6065-1.0223 1.279-0.597 2.6992-0.89572 4.2612-0.89572 1.63 0 2.974 0.38411 4.034 1.1521 1.07 0.73799 1.6724 1.7071 1.8044 2.9111 0.029 0.188 0.045435 0.39313 0.045435 0.61012 0 0.985-0.34354 1.8759-1.0255 2.6709-1.07 1.203-2.6893 1.8044-4.8583 1.8044-1.24 0-2.0933 0.26238-2.5573 0.78538-0.17 0.188-0.25638 0.40632-0.25638 0.65232v0.19796c0.113 0.929 1.0517 1.3923 2.8137 1.3923 1.099 0 2.0865-0.20437 2.9565-0.61337 0.549-0.273 0.82432-0.43729 0.82432-0.49329l2.0868 2.2166c-0.378 0.359-0.91446 0.70327-1.6065 1.0353-1.278 0.595-2.6972 0.89572-4.2612 0.89572zm29.338 0c-2.103 0-3.9073-0.73958-5.4133-2.2166-1.477-1.477-2.2166-3.2691-2.2166-5.3711 0-2.103 0.73958-3.9073 2.2166-5.4133 1.506-1.479 3.3103-2.2166 5.4133-2.2166 2.112 0 3.9041 0.73759 5.3711 2.2166 1.479 1.506 2.2166 3.3103 2.2166 5.4133 0 2.102-0.73758 3.8941-2.2166 5.3711-1.467 1.477-3.2591 2.2166-5.3711 2.2166zm23.701 0v-15.218h3.0409v3.0279h3.0669c1.014 0 2.0269 0.25888 3.0409 0.77888 2.027 1.014 3.0377 2.7961 3.0377 5.3451 0 2.537-1.0107 4.3126-3.0377 5.3256-1.014 0.493-2.0269 0.73994-3.0409 0.73994h-6.1078zm32.665 0-7.6331-15.218h3.5667l0.86651 2.1322h6.3642l0.85353-2.1322h3.5667l-7.5844 15.218zm23.694 0v-15.218h3.0409v5.741l5.4555-5.741h4.0664l-7.2631 7.5877 7.2631 7.6298h-4.0664l-5.4555-5.7832v5.7832h-3.0409zm-80.06-3.0409c1.26 0 2.3257-0.45107 3.1967-1.3501 0.909-0.871 1.3631-1.9377 1.3631-3.1967 0-1.26-0.45405-2.3399-1.3631-3.2389-0.871-0.91-1.9367-1.363-3.1967-1.363-1.26 0-2.3389 0.45305-3.2389 1.363-0.901 0.899-1.3501 1.9789-1.3501 3.2389 0 1.259 0.44907 2.3257 1.3501 3.1967 0.9 0.899 1.9789 1.3501 3.2389 1.3501zm26.742 0h3.0669c0.492 0 0.99883-0.12397 1.5188-0.36997 1.013-0.512 1.5221-1.3957 1.5221-2.6547 0-1.289-0.50908-2.1789-1.5221-2.6709-0.52-0.246-1.0268-0.36997-1.5188-0.36997h-3.0669v6.0656zm29.624-3.2389 1.8434-3.6965h-3.6932l1.8499 3.6965z" clip-path="url(#clipPath3)" fill="#8a6d49"/></g></svg>
